<svg xmlns="http://www.w3.org/2000/svg" width="300" height="300" fill="none" viewBox="0 0 300 300">
    <path fill="#fff" fill-opacity=".8" d="M242.9 193a12 12 0 1 0-8.2-22.6l8.2 22.5zm-146 31.6a12 12 0 0 0 0 24v-24zm137.8-54.2c-55.1 19.8-93.7 22.1-118.9 15.6-24.3-6.4-36.6-21.1-40.8-38.6l-23.4 5.5c6.4 26.5 25.6 47.8 58.2 56.3 31.8 8.3 75.7 4.4 133-16.3l-8-22.5zM75 147.4a61.4 61.4 0 0 1 8.2-50 81 81 0 0 1 47.7-31.2L124.7 43a104.8 104.8 0 0 0-61.4 41 85.4 85.4 0 0 0-11.7 69l23.4-5.6zm55.9-81.2a73.1 73.1 0 0 1 60 11.3c16.5 11.8 26 29.4 23.5 49.1l23.8 3.1c4-30.3-11.2-56-33.4-71.7a97 97 0 0 0-80-15l6 23.2zm83.5 60.4c-5.8 44.6-51.7 98-117.6 98v24c79.1 0 134.2-63.5 141.4-118.9l-23.8-3.1z"/>
</svg>
